HIERARCHY
ROOT Hips
{
	OFFSET 0.000000 121.760803 0.000000
	CHANNELS 6 Xposition Yposition Zposition Xrotation Yrotation Zrotation 
	JOINT Spine
	{
		OFFSET 0.072000 7.257294 -0.789700
		CHANNELS 3 Xrotation Yrotation Zrotation
		JOINT Spine1
		{
			OFFSET 0.000000 12.508769 -0.658067
			CHANNELS 3 Xrotation Yrotation Zrotation
			JOINT Spine1_split
			{
				OFFSET 0.000000 12.508769 -0.658067
				CHANNELS 3 Xrotation Yrotation Zrotation
				JOINT Spine2
				{
					OFFSET 0.000000 12.508769 -0.658067
					CHANNELS 3 Xrotation Yrotation Zrotation
					JOINT Neck
					{
						OFFSET 0.000000 14.033295 7.520400
						CHANNELS 3 Xrotation Yrotation Zrotation
						JOINT Head
						{
							OFFSET 0.000000 8.198502 5.703100
							CHANNELS 3 Xrotation Yrotation Zrotation
							JOINT HeadTop_End
							{
								OFFSET 0.000000 17.760803 13.332701
								CHANNELS 3 Xrotation Yrotation Zrotation
								End Site
								{
									OFFSET 0.000000 0.000000 0.000000
								}
							}
						}
					}
					JOINT LeftShoulder
					{
						OFFSET 6.292450 5.785301 -0.669000
						CHANNELS 3 Xrotation Yrotation Zrotation
						JOINT LeftShoulder_split
						{
							OFFSET 6.292450 5.785301 -0.669000
							CHANNELS 3 Xrotation Yrotation Zrotation
							JOINT LeftArm
							{
								OFFSET 13.907140 -6.093903 1.965100
								CHANNELS 3 Xrotation Yrotation Zrotation
								JOINT LeftForeArm
								{
									OFFSET 34.140198 0.000000 0.000000
									CHANNELS 3 Xrotation Yrotation Zrotation
									JOINT LeftHand
									{
										OFFSET 40.960209 0.000000 0.000000
										CHANNELS 3 Xrotation Yrotation Zrotation
										JOINT LeftHandThumb1
										{
											OFFSET 10.006996 -7.170425 9.573125
											CHANNELS 3 Xrotation Yrotation Zrotation
											JOINT LeftHandThumb2
											{
												OFFSET 1.835007 -1.059448 1.059443
												CHANNELS 3 Xrotation Yrotation Zrotation
												JOINT LeftHandThumb3
												{
													OFFSET 2.112267 -1.219513 1.219518
													CHANNELS 3 Xrotation Yrotation Zrotation
													JOINT LeftHandThumb4
													{
														OFFSET 4.843811 -2.796570 2.796576
														CHANNELS 3 Xrotation Yrotation Zrotation
														End Site
														{
															OFFSET 0.000000 0.000000 0.000000
														}
													}
												}
											}
										}
										JOINT LeftHandIndex1
										{
											OFFSET 18.389847 -0.922348 4.596882
											CHANNELS 3 Xrotation Yrotation Zrotation
											JOINT LeftHandIndex2
											{
												OFFSET 4.711273 0.000000 0.000000
												CHANNELS 3 Xrotation Yrotation Zrotation
												JOINT LeftHandIndex3
												{
													OFFSET 2.886131 0.000000 0.000000
													CHANNELS 3 Xrotation Yrotation Zrotation
													JOINT LeftHandIndex4
													{
														OFFSET 6.145912 0.000000 0.000000
														CHANNELS 3 Xrotation Yrotation Zrotation
														End Site
														{
															OFFSET 0.000000 0.000000 0.000000
														}
													}
												}
											}
										}
										JOINT LeftHandMiddle1
										{
											OFFSET 18.013008 0.000000 0.000000
											CHANNELS 3 Xrotation Yrotation Zrotation
											JOINT LeftHandMiddle2
											{
												OFFSET 4.946693 0.000000 0.000000
												CHANNELS 3 Xrotation Yrotation Zrotation
												JOINT LeftHandMiddle3
												{
													OFFSET 3.342232 0.000000 0.000000
													CHANNELS 3 Xrotation Yrotation Zrotation
													JOINT LeftHandMiddle4
													{
														OFFSET 4.461754 0.000000 0.000000
														CHANNELS 3 Xrotation Yrotation Zrotation
														End Site
														{
															OFFSET 0.000000 0.000000 0.000000
														}
													}
												}
											}
										}
										JOINT LeftHandRing1
										{
											OFFSET 15.849892 -0.102921 -4.126150
											CHANNELS 3 Xrotation Yrotation Zrotation
											JOINT LeftHandRing2
											{
												OFFSET 3.527054 0.000000 0.000000
												CHANNELS 3 Xrotation Yrotation Zrotation
												JOINT LeftHandRing3
												{
													OFFSET 2.961098 0.000000 0.000000
													CHANNELS 3 Xrotation Yrotation Zrotation
													JOINT LeftHandRing4
													{
														OFFSET 4.927200 0.000000 0.000000
														CHANNELS 3 Xrotation Yrotation Zrotation
														End Site
														{
															OFFSET 0.000000 0.000000 0.000000
														}
													}
												}
											}
										}
										JOINT LeftHandPinky1
										{
											OFFSET 12.791824 -0.832031 -6.799156
											CHANNELS 3 Xrotation Yrotation Zrotation
											JOINT LeftHandPinky2
											{
												OFFSET 3.327133 0.000000 0.000000
												CHANNELS 3 Xrotation Yrotation Zrotation
												JOINT LeftHandPinky3
												{
													OFFSET 3.014900 0.000000 0.000000
													CHANNELS 3 Xrotation Yrotation Zrotation
													JOINT LeftHandPinky4
													{
														OFFSET 5.847786 0.000000 0.000000
														CHANNELS 3 Xrotation Yrotation Zrotation
														End Site
														{
															OFFSET 0.000000 0.000000 0.000000
														}
													}
												}
											}
										}
									}
								}
							}
						}
					}
					JOINT RightShoulder
					{
						OFFSET -6.292450 5.785301 -0.669000
						CHANNELS 3 Xrotation Yrotation Zrotation
						JOINT RightShoulder_split
						{
							OFFSET -6.292450 5.785301 -0.669000
							CHANNELS 3 Xrotation Yrotation Zrotation
							JOINT RightArm
							{
								OFFSET -13.907140 -6.093903 1.965100
								CHANNELS 3 Xrotation Yrotation Zrotation
								JOINT RightForeArm
								{
									OFFSET -34.140198 0.000000 0.000000
									CHANNELS 3 Xrotation Yrotation Zrotation
									JOINT RightHand
									{
										OFFSET -40.960209 0.000000 0.000000
										CHANNELS 3 Xrotation Yrotation Zrotation
										JOINT RightHandThumb1
										{
											OFFSET -10.007050 -7.170456 9.573117
											CHANNELS 3 Xrotation Yrotation Zrotation
											JOINT RightHandThumb2
											{
												OFFSET -1.835007 -1.059448 1.059443
												CHANNELS 3 Xrotation Yrotation Zrotation
												JOINT RightHandThumb3
												{
													OFFSET -2.112267 -1.219513 1.219518
													CHANNELS 3 Xrotation Yrotation Zrotation
													JOINT RightHandThumb4
													{
														OFFSET -4.843834 -2.796585 2.796590
														CHANNELS 3 Xrotation Yrotation Zrotation
														End Site
														{
															OFFSET 0.000000 0.000000 0.000000
														}
													}
												}
											}
										}
										JOINT RightHandIndex1
										{
											OFFSET -18.389870 -0.922424 4.596786
											CHANNELS 3 Xrotation Yrotation Zrotation
											JOINT RightHandIndex2
											{
												OFFSET -4.711273 0.000000 0.000000
												CHANNELS 3 Xrotation Yrotation Zrotation
												JOINT RightHandIndex3
												{
													OFFSET -2.886131 0.000000 0.000000
													CHANNELS 3 Xrotation Yrotation Zrotation
													JOINT RightHandIndex4
													{
														OFFSET -6.145920 0.000000 0.000000
														CHANNELS 3 Xrotation Yrotation Zrotation
														End Site
														{
															OFFSET 0.000000 0.000000 0.000000
														}
													}
												}
											}
										}
										JOINT RightHandMiddle1
										{
											OFFSET -18.013008 0.000000 0.000000
											CHANNELS 3 Xrotation Yrotation Zrotation
											JOINT RightHandMiddle2
											{
												OFFSET -4.946693 0.000000 0.000000
												CHANNELS 3 Xrotation Yrotation Zrotation
												JOINT RightHandMiddle3
												{
													OFFSET -3.342232 0.000000 0.000000
													CHANNELS 3 Xrotation Yrotation Zrotation
													JOINT RightHandMiddle4
													{
														OFFSET -4.461754 0.000000 0.000000
														CHANNELS 3 Xrotation Yrotation Zrotation
														End Site
														{
															OFFSET 0.000000 0.000000 0.000000
														}
													}
												}
											}
										}
										JOINT RightHandRing1
										{
											OFFSET -15.849876 -0.102936 -4.126237
											CHANNELS 3 Xrotation Yrotation Zrotation
											JOINT RightHandRing2
											{
												OFFSET -3.527054 0.000000 0.000000
												CHANNELS 3 Xrotation Yrotation Zrotation
												JOINT RightHandRing3
												{
													OFFSET -2.961098 0.000000 0.000000
													CHANNELS 3 Xrotation Yrotation Zrotation
													JOINT RightHandRing4
													{
														OFFSET -4.927200 0.000000 0.000000
														CHANNELS 3 Xrotation Yrotation Zrotation
														End Site
														{
															OFFSET 0.000000 0.000000 0.000000
														}
													}
												}
											}
										}
										JOINT RightHandPinky1
										{
											OFFSET -12.791786 -0.832077 -6.799222
											CHANNELS 3 Xrotation Yrotation Zrotation
											JOINT RightHandPinky2
											{
												OFFSET -3.327133 0.000000 0.000000
												CHANNELS 3 Xrotation Yrotation Zrotation
												JOINT RightHandPinky3
												{
													OFFSET -3.014900 0.000000 0.000000
													CHANNELS 3 Xrotation Yrotation Zrotation
													JOINT RightHandPinky4
													{
														OFFSET -5.847786 0.000000 0.000000
														CHANNELS 3 Xrotation Yrotation Zrotation
														End Site
														{
															OFFSET 0.000000 0.000000 0.000000
														}
													}
												}
											}
										}
									}
								}
							}
						}
					}
				}
			}
		}
	}
	JOINT LeftUpLeg
	{
		OFFSET 13.026900 -6.336304 -1.092800
		CHANNELS 3 Xrotation Yrotation Zrotation
		JOINT LeftLeg
		{
			OFFSET 0.524474 -46.096886 9.782700
			CHANNELS 3 Xrotation Yrotation Zrotation
			JOINT LeftFoot
			{
				OFFSET -0.524474 -53.427422 -12.948200
				CHANNELS 3 Xrotation Yrotation Zrotation
				JOINT LeftToeBase
				{
					OFFSET 0.192200 -14.009700 16.364100
					CHANNELS 3 Xrotation Yrotation Zrotation
					JOINT LeftToe_End
					{
						OFFSET -1.784700 -0.561700 9.474800
						CHANNELS 3 Xrotation Yrotation Zrotation
						End Site
						{
							OFFSET 0.000000 0.000000 0.000000
						}
					}
				}
			}
		}
	}
	JOINT RightUpLeg
	{
		OFFSET -12.883000 -6.336304 -1.092800
		CHANNELS 3 Xrotation Yrotation Zrotation
		JOINT RightLeg
		{
			OFFSET -0.524587 -46.096825 9.782800
			CHANNELS 3 Xrotation Yrotation Zrotation
			JOINT RightFoot
			{
				OFFSET 0.524587 -53.427383 -12.948300
				CHANNELS 3 Xrotation Yrotation Zrotation
				JOINT RightToeBase
				{
					OFFSET -0.192200 -14.009700 16.364100
					CHANNELS 3 Xrotation Yrotation Zrotation
					JOINT RightToe_End
					{
						OFFSET 1.784700 -0.561700 9.474800
						CHANNELS 3 Xrotation Yrotation Zrotation
						End Site
						{
							OFFSET 0.000000 0.000000 0.000000
						}
					}
				}
			}
		}
	}
}
MOTION
Frames: 4
Frame Time: 0.016667
-1.145225 95.926552 0.541136 11.742485 -49.637973 11.853768 10.998300 2.884818 -2.598211 6.100715 5.566538 -4.284695 0.000000 0.000000 0.000000 -5.786930 6.328145 -3.046190 2.317271 9.363503 -0.265714 -4.145193 23.161793 -3.522661 -0.000000 0.000000 -0.000000 -1.915073 -16.511776 -2.939003 0.000000 0.000000 0.000000 -10.486667 2.625041 -45.366349 -22.934650 -26.042297 -16.052432 2.486703 -2.421339 6.911737 18.458433 -9.511648 13.216076 -1.151047 11.255596 -8.390552 5.706543 8.483127 -0.820704 0.000001 0.000001 -0.000001 -1.232393 -5.767194 -0.192360 0.133064 -0.208738 -4.601633 0.055732 -0.448165 -7.568168 0.000003 -0.000002 -0.000003 1.879047 4.660577 -4.596727 0.488053 -1.011720 -12.986292 0.650642 -1.351205 -16.553672 -0.000001 -0.000000 0.000000 3.021270 7.938964 -14.102999 -0.721403 -0.564642 -18.895735 -0.741456 -0.701371 -22.058571 -0.000005 -0.000002 -0.000002 2.009206 6.305996 -22.386389 -0.833124 -0.206648 -16.746480 -2.250920 0.030643 -34.673824 -0.000000 -0.000001 0.000003 -5.102372 24.651553 1.530440 0.000000 0.000000 0.000000 6.852330 -35.149963 57.689233 -21.079514 44.888912 20.017003 -0.116031 35.721206 7.538533 55.149577 18.649529 -29.698277 -0.442587 -14.180513 7.313134 21.666989 -29.244507 9.142387 0.000000 -0.000001 -0.000001 5.673373 7.585029 36.844178 1.050470 3.824482 68.900244 0.499580 3.026051 62.196461 -0.000001 -0.000001 0.000001 -0.125682 1.886106 45.000770 -1.169019 3.204647 68.417643 -0.936417 1.813600 41.107555 0.000001 -0.000000 -0.000000 -5.312005 1.216654 58.508807 -0.745229 1.667573 48.011319 -0.816478 1.840594 53.666558 -0.000001 -0.000000 -0.000001 -7.756830 -9.376443 47.263997 -0.526034 1.541562 45.600525 -0.508179 0.803465 24.986610 -0.000005 0.000001 -0.000002 -66.339770 27.373346 41.603481 43.629633 -19.169295 3.300859 6.151851 0.696931 -10.402037 -0.949337 -6.111337 0.985535 -0.000000 -0.000000 -0.000000 -33.768476 0.305387 -25.532041 50.491419 2.246031 -6.583207 -23.897280 -2.615371 25.261381 0.528301 2.970133 1.471367 0.000000 0.000002 -0.000000 
-0.834061 96.113411 0.330675 11.780832 -49.516751 11.684904 10.681861 2.920299 -2.279161 6.270520 5.497039 -4.598442 0.000000 0.000000 0.000000 -5.595390 6.320226 -3.336134 2.640499 9.509917 -0.611383 -4.329302 23.155525 -3.472937 0.000001 0.000000 0.000000 -1.910400 -16.163875 -3.090430 0.000000 0.000000 0.000000 -12.030261 0.880594 -45.319169 -21.770900 -23.471154 -14.157647 2.477843 -3.270597 5.936768 18.463951 -9.514396 13.212511 -1.112711 11.306127 -8.396358 5.706542 8.483130 -0.820711 0.000002 -0.000001 -0.000001 -1.232406 -5.775693 -0.414987 0.131529 -0.226377 -4.993311 0.069745 -0.457802 -7.578650 -0.000001 -0.000001 0.000001 1.878201 4.643281 -4.856699 0.484501 -1.023660 -13.186610 0.645926 -1.363651 -16.754012 0.000001 0.000001 0.000001 3.018620 7.917236 -14.361905 -0.723417 -0.572772 -19.096347 -0.743933 -0.709365 -22.259073 0.000002 0.000001 0.000001 2.005596 6.286234 -22.645473 -0.834528 -0.216355 -16.947012 -2.254429 0.022129 -34.874283 0.000000 -0.000004 -0.000003 -5.012407 24.293286 1.216169 0.000000 0.000000 0.000000 6.254666 -34.836454 57.425621 -21.507376 44.701157 20.437169 -0.231539 33.998421 6.851890 55.149570 18.649536 -29.698277 -0.442587 -14.180510 7.313134 21.666989 -29.244510 9.142387 -0.000000 0.000001 -0.000000 5.673370 7.585034 36.844185 1.050471 3.824480 68.900237 0.499580 3.026053 62.196461 0.000002 -0.000003 0.000000 -0.125684 1.886109 45.000773 -1.169019 3.204651 68.417650 -0.936416 1.813601 41.107555 -0.000000 -0.000001 -0.000001 -5.312005 1.216659 58.508807 -0.745230 1.667570 48.011316 -0.816483 1.840594 53.666558 0.000000 -0.000001 -0.000002 -7.756833 -9.376439 47.263990 -0.526036 1.541561 45.600525 -0.508178 0.803463 24.986606 -0.000001 0.000000 -0.000000 -66.469789 27.374662 41.487160 43.225791 -19.274592 3.264269 6.531081 0.725258 -10.234252 -0.949243 -6.111340 0.985485 -0.000000 -0.000002 -0.000000 -33.778946 0.275856 -25.206238 50.181540 2.007577 -6.666027 -23.664644 -2.763036 25.332583 0.626277 3.137370 1.326309 0.000000 0.000002 -0.000000 
-0.531857 96.302467 0.022958 11.619561 -49.462761 11.612575 10.800470 2.828838 -2.451924 6.253148 5.455820 -4.730129 0.000000 0.000000 0.000000 -5.604863 6.319125 -3.448270 2.918538 9.797426 -0.772801 -4.285429 23.230974 -3.582197 0.000000 -0.000000 0.000000 -1.950320 -16.377045 -3.316427 0.000000 0.000000 0.000000 -12.793722 0.478098 -45.036171 -20.515371 -22.352274 -13.137843 2.462313 -3.387137 5.660593 18.481157 -9.516259 13.200816 -1.002070 11.451881 -8.413325 5.706538 8.483129 -0.820707 -0.000000 0.000002 0.000000 -1.232770 -5.800255 -1.059702 0.126477 -0.277061 -6.121602 0.110149 -0.485630 -7.608780 0.000005 0.000000 -0.000001 1.875543 4.593691 -5.610082 0.475115 -1.053473 -13.766687 0.633535 -1.394485 -17.334090 0.000001 -0.000000 0.000002 3.010607 7.854307 -15.112313 -0.730641 -0.599779 -19.676443 -0.752811 -0.736473 -22.839224 0.000002 0.000000 0.000001 1.991104 6.229258 -23.395841 -0.839748 -0.247699 -17.526904 -2.266263 -0.004347 -35.454320 -0.000001 0.000000 -0.000001 -4.920681 23.574268 1.114869 0.000000 0.000000 0.000000 5.639805 -34.678055 56.669659 -22.473115 45.269630 21.754006 0.157390 31.484006 5.855167 55.149577 18.649538 -29.698277 -0.442583 -14.180517 7.313136 21.666987 -29.244507 9.142385 -0.000000 -0.000001 -0.000001 5.673371 7.585034 36.844188 1.050472 3.824482 68.900237 0.499583 3.026050 62.196454 0.000002 0.000001 -0.000001 -0.125682 1.886106 45.000776 -1.169019 3.204651 68.417643 -0.936410 1.813601 41.107555 0.000001 0.000000 0.000000 -5.312007 1.216658 58.508821 -0.745230 1.667572 48.011312 -0.816480 1.840594 53.666555 0.000004 -0.000001 -0.000000 -7.756832 -9.376440 47.264001 -0.526035 1.541563 45.600522 -0.508184 0.803464 24.986608 -0.000001 -0.000001 0.000002 -66.318596 27.630767 41.237691 42.662150 -19.447557 3.211106 6.984420 0.859629 -10.117515 -0.949424 -6.111323 0.985235 0.000000 -0.000000 -0.000000 -33.821253 0.322059 -25.072265 50.043970 2.030101 -6.753781 -23.538369 -2.928323 25.232703 0.691041 3.168747 1.304235 -0.000000 0.000004 -0.000000 
-0.230824 96.489906 -0.339533 11.478874 -49.549112 11.581621 10.933660 2.696256 -2.636123 6.255491 5.389550 -4.873395 0.000000 0.000000 0.000000 -5.586801 6.304850 -3.562655 3.088681 10.429324 -1.660135 -4.392332 23.236807 -3.332446 0.000002 -0.000000 -0.000000 -2.019132 -15.755240 -4.014506 0.000000 0.000000 0.000000 -14.105694 -0.623454 -44.437634 -18.714599 -20.851324 -11.947965 2.441562 -3.378181 5.069726 18.508508 -9.519171 13.182172 -0.822721 11.681135 -8.439629 5.706544 8.483129 -0.820711 0.000001 -0.000001 0.000000 -1.233364 -5.834173 -2.091541 0.116398 -0.357558 -7.916972 0.174339 -0.529903 -7.656289 0.000000 0.000002 0.000003 1.870196 4.511113 -6.816995 0.462243 -1.098896 -14.694423 0.614972 -1.438405 -18.261914 0.000003 0.000000 -0.000000 2.992147 7.754490 -16.314023 -0.744045 -0.646161 -20.604037 -0.769980 -0.784661 -23.766681 0.000003 -0.000001 -0.000002 1.966471 6.138873 -24.598166 -0.848859 -0.297654 -18.454252 -2.290210 -0.043190 -36.381870 -0.000004 0.000002 0.000000 -4.713506 23.018405 0.781703 0.000000 0.000000 0.000000 5.134855 -34.583099 56.017038 -23.493879 45.872124 23.282984 0.566487 28.887360 4.638318 55.149570 18.649536 -29.698284 -0.442585 -14.180515 7.313132 21.666986 -29.244500 9.142387 0.000001 0.000000 -0.000001 5.673372 7.585035 36.844182 1.050470 3.824479 68.900244 0.499581 3.026052 62.196461 -0.000001 -0.000001 0.000002 -0.125683 1.886108 45.000773 -1.169019 3.204652 68.417650 -0.936412 1.813600 41.107558 0.000000 0.000001 -0.000002 -5.312008 1.216661 58.508807 -0.745230 1.667574 48.011316 -0.816477 1.840596 53.666558 -0.000000 -0.000000 -0.000000 -7.756833 -9.376439 47.263994 -0.526037 1.541561 45.600525 -0.508184 0.803462 24.986608 -0.000002 -0.000002 0.000002 -66.103165 27.883112 41.038082 42.053041 -19.596188 3.154767 7.448965 1.074250 -10.078473 -0.949420 -6.111325 0.985143 0.000000 -0.000001 -0.000000 -34.082907 0.206851 -25.014204 49.991005 2.298258 -6.830465 -23.463325 -3.032160 24.979206 1.092830 3.313975 1.212992 0.000000 -0.000001 -0.000000 
